<?xml version="1.0" encoding="utf-8"?>
<!-- Generator: Adobe Illustrator 23.0.1, SVG Export Plug-In . SVG Version: 6.00 Build 0)  -->
<svg version="1.1" id="_x31_0" xmlns="http://www.w3.org/2000/svg" xmlns:xlink="http://www.w3.org/1999/xlink" x="0px" y="0px"
	 viewBox="0 0 512 512" style="enable-background:new 0 0 512 512;" xml:space="preserve">
<g>
	<path d="M256,0C114.6,0,0,114.6,0,256c0,141.4,114.6,256,256,256c141.4,0,256-114.6,256-256C512,114.6,397.4,0,256,0z M261.8,222.7
		c0.1,0,0.1,0,0.2,0c-1-4-1.4-8.2-1.4-12.5c0-30.2,24.6-54.8,54.8-54.8c15.8,0,30,6.6,40,17.4c10.2-2,19.9-5.5,28.9-10.2
		c1.9-1,3.9-1.9,5.8-3c-3.3,10.1-9.5,18.9-17.6,25.5c-2.1,1.6-4.2,3.2-6.5,4.5c0.1,0,0.2,0,0.3,0c-0.1,0.1-0.2,0.1-0.3,0.2
		c8.9-1,17.5-3.2,25.7-6.3c1.9-0.7,3.7-1.3,5.6-2.1c-7.3,10.9-16.6,20.5-27.2,28.1c0.2,2.4,0.2,4.7,0.2,7.1
		c0,72.4-55.1,155.9-155.9,155.9c-31,0-59.8-9-84-24.6c4.3,0.5,8.6,0.8,13.1,0.8c18.7,0,36.3-4.7,51.7-12.9c0.3-0.2,0.7-0.3,1-0.5
		c1-0.5,1.9-1.1,2.9-1.7c4.3-2.5,8.4-5.2,12.4-8.2c-0.1,0-0.1,0-0.2,0c0.1,0,0.1-0.1,0.2-0.1c-20.9-0.4-39-12.5-47.9-30.1
		c-1.3-2.5-2.3-5.2-3.2-7.9c3.3,0.6,6.7,0.9,10.2,0.9c3.6,0,7.1-0.5,10.6-1.1c1.3-0.2,2.6-0.4,3.9-0.6c-0.1,0-0.2-0.1-0.3-0.1
		c0.1,0,0.2,0,0.3-0.1c-25.1-5-44-27.2-44-53.8v-0.6c5.8,3.2,12.3,5.4,19.2,6.3c1.9,0.3,3.7,0.5,5.6,0.6c-0.1,0-0.1-0.1-0.2-0.2
		c0.1,0,0.2,0,0.3,0c-14.7-9.8-24.4-26.6-24.4-45.6c0-8.6,2.1-16.7,5.7-24c0.6-1.2,1.1-2.4,1.8-3.5c26.6,32.7,66.3,54.3,111.2,57
		C260.8,222.6,261.3,222.7,261.8,222.7C261.8,222.7,261.8,222.7,261.8,222.7z"/>
</g>
</svg>
